<?xml version="1.0" encoding="utf-8"?>
<!-- Generator: Adobe Illustrator 15.0.0, SVG Export Plug-In . SVG Version: 6.00 Build 0)  -->
<!DOCTYPE svg PUBLIC "-//W3C//DTD SVG 1.1//EN" "http://www.w3.org/Graphics/SVG/1.1/DTD/svg11.dtd">
<svg version="1.1" id="Layer_1" xmlns="http://www.w3.org/2000/svg" xmlns:xlink="http://www.w3.org/1999/xlink" x="0px" y="0px"
	 width="793.7006836px" height="538.5825195px" viewBox="0 0 793.7006836 538.5825195"
	 enable-background="new 0 0 793.7006836 538.5825195" xml:space="preserve">
<g>
	<path fill="none" stroke="#000000" stroke-width="0" stroke-miterlimit="10" d="M183.5825195,463.2563477v-72
		 M183.5825195,382.2563477v-72 M183.5825195,301.2563477v-72 M183.5825195,220.2563477v-72 M188.1264648,143.7563477v36
		 M188.1264648,188.7563477v72 M188.1264648,269.7563477v72 M188.1264648,350.7563477v72 M188.1264648,431.7563477v36
		 M192.6708984,463.2563477v-72 M192.6708984,382.2563477v-72 M192.6708984,301.2563477v-72 M192.6708984,220.2563477v-72
		 M197.2148438,143.7563477v36 M197.2148438,188.7563477v72 M197.2148438,269.7563477v72 M197.2148438,350.7563477v72
		 M197.2148438,431.7563477v36 M201.7587891,463.2563477v-72 M201.7587891,382.2563477v-72 M201.7587891,301.2563477v-72
		 M201.7587891,220.2563477v-72 M206.3032227,143.7563477v36 M206.3032227,188.7563477v72 M206.3032227,269.7563477v72
		 M206.3032227,350.7563477v72 M206.3032227,431.7563477v36 M210.847168,463.2563477v-72 M210.847168,382.2563477v-72
		 M210.847168,301.2563477v-72 M210.847168,220.2563477v-72 M215.3911133,143.7563477v36 M215.3911133,188.7563477v72
		 M215.3911133,269.7563477v72 M215.3911133,350.7563477v72 M215.3911133,431.7563477v36 M219.9350586,463.2563477v-72
		 M219.9350586,382.2563477v-72 M219.9350586,301.2563477v-72 M219.9350586,220.2563477v-72 M224.4794922,143.7563477v36
		 M224.4794922,188.7563477v72 M224.4794922,269.7563477v72 M224.4794922,350.7563477v72 M224.4794922,431.7563477v36
		 M229.0234375,463.2563477v-72 M229.0234375,382.2563477v-72 M229.0234375,301.2563477v-72 M229.0234375,220.2563477v-72
		 M233.5673828,143.7563477v36 M233.5673828,188.7563477v72 M233.5673828,269.7563477v72 M233.5673828,350.7563477v72
		 M233.5673828,431.7563477v36 M238.1118164,463.2563477v-72 M238.1118164,382.2563477v-72 M238.1118164,301.2563477v-72
		 M238.1118164,220.2563477v-72 M242.6557617,143.7563477v36 M242.6557617,188.7563477v72 M242.6557617,269.7563477v72
		 M242.6557617,350.7563477v72 M242.6557617,431.7563477v36 M247.199707,463.2563477v-72 M247.199707,382.2563477v-72
		 M247.199707,301.2563477v-72 M247.199707,220.2563477v-72 M251.7436523,143.7563477v36 M251.7436523,188.7563477v72
		 M251.7436523,269.7563477v72 M251.7436523,350.7563477v72 M251.7436523,431.7563477v36 M256.2880859,463.2563477v-72
		 M256.2880859,382.2563477v-72 M256.2880859,301.2563477v-72 M256.2880859,220.2563477v-72 M260.8320312,143.7563477v36
		 M260.8320312,188.7563477v72 M260.8320312,269.7563477v72 M260.8320312,350.7563477v72 M260.8320312,431.7563477v36
		 M265.3759766,463.2563477v-72 M265.3759766,382.2563477v-72 M265.3759766,301.2563477v-72 M265.3759766,220.2563477v-72
		 M269.9204102,143.7563477v36 M269.9204102,188.7563477v72 M269.9204102,269.7563477v72 M269.9204102,350.7563477v72
		 M269.9204102,431.7563477v36 M274.4643555,463.2563477v-72 M274.4643555,382.2563477v-72 M274.4643555,301.2563477v-72
		 M274.4643555,220.2563477v-72 M279.0083008,143.7563477v36 M279.0083008,188.7563477v72 M279.0083008,269.7563477v72
		 M279.0083008,350.7563477v72 M279.0083008,431.7563477v36 M283.5522461,463.2563477v-72 M283.5522461,382.2563477v-72
		 M283.5522461,301.2563477v-72 M283.5522461,220.2563477v-72 M288.0966797,143.7563477v36 M288.0966797,188.7563477v72
		 M288.0966797,269.7563477v72 M288.0966797,350.7563477v72 M288.0966797,431.7563477v36 M292.640625,463.2563477v-72
		 M292.640625,382.2563477v-72 M292.640625,301.2563477v-72 M292.640625,220.2563477v-72 M297.1845703,143.7563477v36
		 M297.1845703,188.7563477v72 M297.1845703,269.7563477v72 M297.1845703,350.7563477v72 M297.1845703,431.7563477v36
		 M301.7290039,463.2563477v-72 M301.7290039,382.2563477v-72 M301.7290039,301.2563477v-72 M301.7290039,220.2563477v-72
		 M306.2729492,143.7563477v36 M306.2729492,188.7563477v72 M306.2729492,269.7563477v72 M306.2729492,350.7563477v72
		 M306.2729492,431.7563477v36 M310.8168945,463.2563477v-72 M310.8168945,382.2563477v-72 M310.8168945,301.2563477v-72
		 M310.8168945,220.2563477v-72 M310.8168945,139.2563477 M183.5825195,143.7563477h127.234375 M310.8168945,467.7563477
		h-127.234375 M310.8168945,463.2563477v-72 M310.8168945,382.2563477v-72 M310.8168945,301.2563477v-72 M310.8168945,220.2563477
		v-72 M315.3608398,143.7563477v36 M315.3608398,188.7563477v72 M315.3608398,269.7563477v72 M315.3608398,350.7563477v72
		 M315.3608398,431.7563477v36 M319.9052734,463.2563477v-72 M319.9052734,382.2563477v-72 M319.9052734,301.2563477v-72
		 M319.9052734,220.2563477v-72 M324.4492188,143.7563477v36 M324.4492188,188.7563477v72 M324.4492188,269.7563477v72
		 M324.4492188,350.7563477v72 M324.4492188,431.7563477v36 M328.9931641,463.2563477v-72 M328.9931641,382.2563477v-72
		 M328.9931641,301.2563477v-72 M328.9931641,220.2563477v-72 M333.5375977,143.7563477v36 M333.5375977,188.7563477v72
		 M333.5375977,269.7563477v72 M333.5375977,350.7563477v72 M333.5375977,431.7563477v36 M338.081543,463.2563477v-72
		 M338.081543,382.2563477v-72 M338.081543,301.2563477v-72 M338.081543,220.2563477v-72 M342.6254883,143.7563477v36
		 M342.6254883,188.7563477v72 M342.6254883,269.7563477v72 M342.6254883,350.7563477v72 M342.6254883,431.7563477v36
		 M347.1694336,463.2563477v-72 M347.1694336,382.2563477v-72 M347.1694336,301.2563477v-72 M347.1694336,220.2563477v-72
		 M351.7133789,143.7563477v36 M351.7133789,188.7563477v72 M351.7133789,269.7563477v72 M351.7133789,350.7563477v72
		 M351.7133789,431.7563477v36 M356.2583008,463.2563477v-72 M356.2583008,382.2563477v-72 M356.2583008,301.2563477v-72
		 M356.2583008,220.2563477v-72 M360.8022461,143.7563477v36 M360.8022461,188.7563477v72 M360.8022461,269.7563477v72
		 M360.8022461,350.7563477v72 M360.8022461,431.7563477v36 M365.3461914,463.2563477v-72 M365.3461914,382.2563477v-72
		 M365.3461914,301.2563477v-72 M365.3461914,220.2563477v-72 M369.8901367,143.7563477v36 M369.8901367,188.7563477v72
		 M369.8901367,269.7563477v72 M369.8901367,350.7563477v72 M369.8901367,431.7563477v36 M374.434082,463.2563477v-72
		 M374.434082,382.2563477v-72 M374.434082,301.2563477v-72 M374.434082,220.2563477v-72 M378.9780273,143.7563477v36
		 M378.9780273,188.7563477v72 M378.9780273,269.7563477v72 M378.9780273,350.7563477v72 M378.9780273,431.7563477v36
		 M383.5219727,463.2563477v-72 M383.5219727,382.2563477v-72 M383.5219727,301.2563477v-72 M383.5219727,220.2563477v-72
		 M388.0668945,143.7563477v36 M388.0668945,188.7563477v72 M388.0668945,269.7563477v72 M388.0668945,350.7563477v72
		 M388.0668945,431.7563477v36 M392.6108398,463.2563477v-72 M392.6108398,382.2563477v-72 M392.6108398,301.2563477v-72
		 M392.6108398,220.2563477v-72 M397.1547852,143.7563477v36 M397.1547852,188.7563477v72 M397.1547852,269.7563477v72
		 M397.1547852,350.7563477v72 M397.1547852,431.7563477v36 M401.6987305,463.2563477v-72 M401.6987305,382.2563477v-72
		 M401.6987305,301.2563477v-72 M401.6987305,220.2563477v-72 M406.2426758,143.7563477v36 M406.2426758,188.7563477v72
		 M406.2426758,269.7563477v72 M406.2426758,350.7563477v72 M406.2426758,431.7563477v36 M410.7866211,463.2563477v-72
		 M410.7866211,382.2563477v-72 M410.7866211,301.2563477v-72 M410.7866211,220.2563477v-72 M415.3305664,143.7563477v36
		 M415.3305664,188.7563477v72 M415.3305664,269.7563477v72 M415.3305664,350.7563477v72 M415.3305664,431.7563477v36
		 M419.8754883,463.2563477v-72 M419.8754883,382.2563477v-72 M419.8754883,301.2563477v-72 M419.8754883,220.2563477v-72
		 M424.4194336,143.7563477v36 M424.4194336,188.7563477v72 M424.4194336,269.7563477v72 M424.4194336,350.7563477v72
		 M424.4194336,431.7563477v36 M428.9633789,463.2563477v-72 M428.9633789,382.2563477v-72 M428.9633789,301.2563477v-72
		 M428.9633789,220.2563477v-72 M433.5073242,143.7563477v36 M433.5073242,188.7563477v72 M433.5073242,269.7563477v72
		 M433.5073242,350.7563477v72 M433.5073242,431.7563477v36 M438.0512695,463.2563477v-72 M438.0512695,382.2563477v-72
		 M438.0512695,301.2563477v-72 M438.0512695,220.2563477v-72 M438.0512695,139.2563477 M310.8168945,143.7563477h127.234375
		 M438.0512695,467.7563477h-127.234375 M183.5825195,143.7563477h-108v9h-18v-9h-18v324h18v-9h18v9h108 M310.8168945,143.7563477
		L310.8168945,143.7563477"/>
	
		<line fill="none" stroke="#000000" stroke-width="0" stroke-miterlimit="10" x1="310.8168945" y1="467.7563477" x2="310.8168945" y2="467.7563477"/>
	<path fill="none" stroke="#000000" stroke-width="0" stroke-miterlimit="10" d="M980.5200195,463.2563477v-72
		 M980.5200195,382.2563477v-72 M980.5200195,301.2563477v-72 M980.5200195,220.2563477v-72 M975.9760742,143.7563477v36
		 M975.9760742,188.7563477v72 M975.9760742,269.7563477v72 M975.9760742,350.7563477v72 M975.9760742,431.7563477v36
		 M971.4321289,463.2563477v-72 M971.4321289,382.2563477v-72 M971.4321289,301.2563477v-72 M971.4321289,220.2563477v-72
		 M966.8881836,143.7563477v36 M966.8881836,188.7563477v72 M966.8881836,269.7563477v72 M966.8881836,350.7563477v72
		 M966.8881836,431.7563477v36 M962.3442383,463.2563477v-72 M962.3442383,382.2563477v-72 M962.3442383,301.2563477v-72
		 M962.3442383,220.2563477v-72 M957.7993164,143.7563477v36 M957.7993164,188.7563477v72 M957.7993164,269.7563477v72
		 M957.7993164,350.7563477v72 M957.7993164,431.7563477v36 M953.2553711,463.2563477v-72 M953.2553711,382.2563477v-72
		 M953.2553711,301.2563477v-72 M953.2553711,220.2563477v-72 M948.7114258,143.7563477v36 M948.7114258,188.7563477v72
		 M948.7114258,269.7563477v72 M948.7114258,350.7563477v72 M948.7114258,431.7563477v36 M944.1674805,463.2563477v-72
		 M944.1674805,382.2563477v-72 M944.1674805,301.2563477v-72 M944.1674805,220.2563477v-72 M939.6235352,143.7563477v36
		 M939.6235352,188.7563477v72 M939.6235352,269.7563477v72 M939.6235352,350.7563477v72 M939.6235352,431.7563477v36
		 M935.0795898,463.2563477v-72 M935.0795898,382.2563477v-72 M935.0795898,301.2563477v-72 M935.0795898,220.2563477v-72
		 M930.5356445,143.7563477v36 M930.5356445,188.7563477v72 M930.5356445,269.7563477v72 M930.5356445,350.7563477v72
		 M930.5356445,431.7563477v36 M925.9907227,463.2563477v-72 M925.9907227,382.2563477v-72 M925.9907227,301.2563477v-72
		 M925.9907227,220.2563477v-72 M921.4467773,143.7563477v36 M921.4467773,188.7563477v72 M921.4467773,269.7563477v72
		 M921.4467773,350.7563477v72 M921.4467773,431.7563477v36 M916.902832,463.2563477v-72 M916.902832,382.2563477v-72
		 M916.902832,301.2563477v-72 M916.902832,220.2563477v-72 M912.3588867,143.7563477v36 M912.3588867,188.7563477v72
		 M912.3588867,269.7563477v72 M912.3588867,350.7563477v72 M912.3588867,431.7563477v36 M907.8149414,463.2563477v-72
		 M907.8149414,382.2563477v-72 M907.8149414,301.2563477v-72 M907.8149414,220.2563477v-72 M903.2709961,143.7563477v36
		 M903.2709961,188.7563477v72 M903.2709961,269.7563477v72 M903.2709961,350.7563477v72 M903.2709961,431.7563477v36
		 M898.7270508,463.2563477v-72 M898.7270508,382.2563477v-72 M898.7270508,301.2563477v-72 M898.7270508,220.2563477v-72
		 M894.1821289,143.7563477v36 M894.1821289,188.7563477v72 M894.1821289,269.7563477v72 M894.1821289,350.7563477v72
		 M894.1821289,431.7563477v36 M889.6381836,463.2563477v-72 M889.6381836,382.2563477v-72 M889.6381836,301.2563477v-72
		 M889.6381836,220.2563477v-72 M885.0942383,143.7563477v36 M885.0942383,188.7563477v72 M885.0942383,269.7563477v72
		 M885.0942383,350.7563477v72 M885.0942383,431.7563477v36 M880.550293,463.2563477v-72 M880.550293,382.2563477v-72
		 M880.550293,301.2563477v-72 M880.550293,220.2563477v-72 M876.0063477,143.7563477v36 M876.0063477,188.7563477v72
		 M876.0063477,269.7563477v72 M876.0063477,350.7563477v72 M876.0063477,431.7563477v36 M871.4624023,463.2563477v-72
		 M871.4624023,382.2563477v-72 M871.4624023,301.2563477v-72 M871.4624023,220.2563477v-72 M866.918457,143.7563477v36
		 M866.918457,188.7563477v72 M866.918457,269.7563477v72 M866.918457,350.7563477v72 M866.918457,431.7563477v36
		 M862.3735352,463.2563477v-72 M862.3735352,382.2563477v-72 M862.3735352,301.2563477v-72 M862.3735352,220.2563477v-72
		 M857.8295898,143.7563477v36 M857.8295898,188.7563477v72 M857.8295898,269.7563477v72 M857.8295898,350.7563477v72
		 M857.8295898,431.7563477v36 M853.2856445,463.2563477v-72 M853.2856445,382.2563477v-72 M853.2856445,301.2563477v-72
		 M853.2856445,220.2563477v-72 M853.2856445,139.2563477 M980.5200195,143.7563477h-127.234375 M853.2856445,467.7563477
		h127.234375 M853.2856445,463.2563477v-72 M853.2856445,382.2563477v-72 M853.2856445,301.2563477v-72 M853.2856445,220.2563477
		v-72 M848.7416992,143.7563477v36 M848.7416992,188.7563477v72 M848.7416992,269.7563477v72 M848.7416992,350.7563477v72
		 M848.7416992,431.7563477v36 M844.1977539,463.2563477v-72 M844.1977539,382.2563477v-72 M844.1977539,301.2563477v-72
		 M844.1977539,220.2563477v-72 M839.6538086,143.7563477v36 M839.6538086,188.7563477v72 M839.6538086,269.7563477v72
		 M839.6538086,350.7563477v72 M839.6538086,431.7563477v36 M835.1098633,463.2563477v-72 M835.1098633,382.2563477v-72
		 M835.1098633,301.2563477v-72 M835.1098633,220.2563477v-72 M830.5649414,143.7563477v36 M830.5649414,188.7563477v72
		 M830.5649414,269.7563477v72 M830.5649414,350.7563477v72 M830.5649414,431.7563477v36 M826.0209961,463.2563477v-72
		 M826.0209961,382.2563477v-72 M826.0209961,301.2563477v-72 M826.0209961,220.2563477v-72 M821.4770508,143.7563477v36
		 M821.4770508,188.7563477v72 M821.4770508,269.7563477v72 M821.4770508,350.7563477v72 M821.4770508,431.7563477v36
		 M816.9331055,463.2563477v-72 M816.9331055,382.2563477v-72 M816.9331055,301.2563477v-72 M816.9331055,220.2563477v-72
		 M812.3891602,143.7563477v36 M812.3891602,188.7563477v72 M812.3891602,269.7563477v72 M812.3891602,350.7563477v72
		 M812.3891602,431.7563477v36 M807.8452148,463.2563477v-72 M807.8452148,382.2563477v-72 M807.8452148,301.2563477v-72
		 M807.8452148,220.2563477v-72 M803.3012695,143.7563477v36 M803.3012695,188.7563477v72 M803.3012695,269.7563477v72
		 M803.3012695,350.7563477v72 M803.3012695,431.7563477v36 M798.7563477,463.2563477v-72 M798.7563477,382.2563477v-72
		 M798.7563477,301.2563477v-72 M798.7563477,220.2563477v-72 M794.2124023,143.7563477v36 M794.2124023,188.7563477v72
		 M794.2124023,269.7563477v72 M794.2124023,350.7563477v72 M794.2124023,431.7563477v36 M789.668457,463.2563477v-72
		 M789.668457,382.2563477v-72 M789.668457,301.2563477v-72 M789.668457,220.2563477v-72 M785.1245117,143.7563477v36
		 M785.1245117,188.7563477v72 M785.1245117,269.7563477v72 M785.1245117,350.7563477v72 M785.1245117,431.7563477v36
		 M780.5805664,463.2563477v-72 M780.5805664,382.2563477v-72 M780.5805664,301.2563477v-72 M780.5805664,220.2563477v-72
		 M776.0366211,143.7563477v36 M776.0366211,188.7563477v72 M776.0366211,269.7563477v72 M776.0366211,350.7563477v72
		 M776.0366211,431.7563477v36 M771.4926758,463.2563477v-72 M771.4926758,382.2563477v-72 M771.4926758,301.2563477v-72
		 M771.4926758,220.2563477v-72 M766.9477539,143.7563477v36 M766.9477539,188.7563477v72 M766.9477539,269.7563477v72
		 M766.9477539,350.7563477v72 M766.9477539,431.7563477v36 M762.4038086,463.2563477v-72 M762.4038086,382.2563477v-72
		 M762.4038086,301.2563477v-72 M762.4038086,220.2563477v-72 M757.8598633,143.7563477v36 M757.8598633,188.7563477v72
		 M757.8598633,269.7563477v72 M757.8598633,350.7563477v72 M757.8598633,431.7563477v36 M753.315918,463.2563477v-72
		 M753.315918,382.2563477v-72 M753.315918,301.2563477v-72 M753.315918,220.2563477v-72 M748.7719727,143.7563477v36
		 M748.7719727,188.7563477v72 M748.7719727,269.7563477v72 M748.7719727,350.7563477v72 M748.7719727,431.7563477v36
		 M744.2280273,463.2563477v-72 M744.2280273,382.2563477v-72 M744.2280273,301.2563477v-72 M744.2280273,220.2563477v-72
		 M739.684082,143.7563477v36 M739.684082,188.7563477v72 M739.684082,269.7563477v72 M739.684082,350.7563477v72
		 M739.684082,431.7563477v36 M735.1391602,463.2563477v-72 M735.1391602,382.2563477v-72 M735.1391602,301.2563477v-72
		 M735.1391602,220.2563477v-72 M730.5952148,143.7563477v36 M730.5952148,188.7563477v72 M730.5952148,269.7563477v72
		 M730.5952148,350.7563477v72 M730.5952148,431.7563477v36 M726.0512695,463.2563477v-72 M726.0512695,382.2563477v-72
		 M726.0512695,301.2563477v-72 M726.0512695,220.2563477v-72 M726.0512695,139.2563477 M853.2856445,143.7563477h-127.234375
		 M726.0512695,467.7563477h127.234375 M980.5200195,143.7563477h108v9h18v-9h18v324h-18v-9h-18v9h-108 M853.2856445,143.7563477
		L853.2856445,143.7563477"/>
	
		<line fill="none" stroke="#000000" stroke-width="0" stroke-miterlimit="10" x1="853.2856445" y1="467.7563477" x2="853.2856445" y2="467.7563477"/>
	<path fill="none" stroke="#000000" stroke-width="0" stroke-miterlimit="10" d="M438.0512695,143.7563477h16.9414062v9h16.9414062
		v-9h16.9404297v9h16.9414062v-9h16.9414062v9h16.9414062v-9h16.9404297v9h16.9414062v-9h16.9414062v9h16.9414062v-9h16.9414062v9
		h16.9404297v-9h16.9414062v9h16.9414062v-9h16.9414062v9h16.9404297v-9h16.9414062 M726.0512695,143.7563477
		L726.0512695,143.7563477c44.7119141,0,81-36.2880859,81-81"/>
	
		<line fill="none" stroke="#000000" stroke-width="0" stroke-miterlimit="10" x1="807.0512695" y1="62.7563477" x2="807.0512695" y2="62.7563477"/>
	<path fill="none" stroke="#000000" stroke-width="0" stroke-miterlimit="10" d="M807.0512695,62.7563477
		c0-44.7124023-36.2880859-81-81-81h-108v-9h-18v9h-36v-9h-18v9h-108l0,0c-44.7119141,0-81,36.2875977-81,81"/>
	
		<line fill="none" stroke="#000000" stroke-width="0" stroke-miterlimit="10" x1="357.0512695" y1="62.7563477" x2="357.0512695" y2="62.7563477"/>
	<path fill="none" stroke="#000000" stroke-width="0" stroke-miterlimit="10" d="M357.0512695,62.7563477
		c0,44.7119141,36.2880859,81,81,81"/>
	
		<line fill="none" stroke="#000000" stroke-width="0" stroke-miterlimit="10" x1="357.0512695" y1="548.7563477" x2="357.0512695" y2="548.7563477"/>
	
		<line fill="none" stroke="#000000" stroke-width="0" stroke-miterlimit="10" x1="807.0512695" y1="548.7563477" x2="807.0512695" y2="548.7563477"/>
	<g>
		<path fill="none" stroke="#000000" stroke-width="0" stroke-miterlimit="10" d="M726.0512695,467.7563477h-16.9414062v-9
			H692.168457v9h-16.9404297v-9h-16.9414062v9h-16.9414062v-9h-16.9414062v9h-16.9404297v-9h-16.9414062v9h-16.9414062v-9
			h-16.9414062v9h-16.9404297v-9h-16.9414062v9H505.815918v-9h-16.9414062v9H471.934082v-9h-16.9414062v9h-16.9414062
			 M438.0512695,467.7563477L438.0512695,467.7563477c-44.7119141,0-81,36.2880859-81,81"/>
		<path fill="none" stroke="#000000" stroke-width="0" stroke-miterlimit="10" d="M357.0512695,548.7563477
			c0,44.7119141,36.2880859,81,81,81h108v9h18v-9h36v9h18v-9h108l0,0c44.7119141,0,81-36.2880859,81-81"/>
		<path fill="none" stroke="#000000" stroke-width="0" stroke-miterlimit="10" d="M807.0512695,548.7563477
			c0-44.7119141-36.2880859-81-81-81"/>
	</g>
	<text transform="matrix(1 0 0 1 57.5786133 674.7524414)" fill="#0000FF" font-family="'Times-Roman'" font-size="10">Flexbox - this is a box that will be 6.5 inches long x 4.5 inches wide x 2.5 inches tall when cut out and put together</text>
	<text transform="matrix(1 0 0 1 517.6098633 674.7524414)" fill="#0000FF" font-family="'Times-Roman'" font-size="10">.</text>
	<text transform="matrix(1 0 0 1 57.5786133 692.7602539)" fill="#0000FF" font-family="'Times-Roman'" font-size="10">If you would like to change the size of the box, edit the flexbox file in a text editor such as notepad </text>
	<text transform="matrix(1 0 0 1 57.5786133 702.7602539)" fill="#0000FF" font-family="'Times-Roman'" font-size="10">then change the box length, width and height near the beginning of the file as you would like.</text>
</g>
<polyline fill="none" stroke="#000000" stroke-width="0" stroke-miterlimit="10" points="726.0512695,467.7563477 
	709.1098633,467.7563477 709.1098633,458.7563477 692.168457,458.7563477 692.168457,467.7563477 675.2280273,467.7563477 
	675.2280273,458.7563477 658.2866211,458.7563477 658.2866211,467.7563477 641.3452148,467.7563477 641.3452148,458.7563477 
	624.4038086,458.7563477 624.4038086,467.7563477 607.4633789,467.7563477 607.4633789,458.7563477 590.5219727,458.7563477 
	590.5219727,467.7563477 573.5805664,467.7563477 573.5805664,458.7563477 556.6391602,458.7563477 556.6391602,467.7563477 
	539.6987305,467.7563477 539.6987305,458.7563477 522.7573242,458.7563477 522.7573242,467.7563477 505.815918,467.7563477 
	505.815918,458.7563477 488.8745117,458.7563477 488.8745117,467.7563477 471.934082,467.7563477 471.934082,458.7563477 
	454.9926758,458.7563477 454.9926758,467.7563477 438.0512695,467.7563477 "/>
</svg>
